<svg width="18" height="18" viewBox="0 0 18 18" fill="none" xmlns="http://www.w3.org/2000/svg">
<g clip-path="url(#clip0_0_1466)">
<path d="M7.29554 12.9084V7.14149H6.61117C6.12102 7.40278 5.64731 7.69379 5.19269 8.01291V8.76431C5.59812 8.48646 6.24033 8.09399 6.55279 7.92425H6.56576V12.9084H7.29554ZM8.57996 11.4975C8.63077 12.1894 9.22217 13.0176 10.4212 13.0176C11.7813 13.0176 12.5835 11.8651 12.5835 9.91359C12.5835 7.82262 11.7391 7.02905 10.472 7.02905C9.47084 7.02905 8.52915 7.75559 8.52915 8.98487C8.52915 10.239 9.42002 10.8985 10.3412 10.8985C11.1477 10.8985 11.671 10.492 11.8364 10.0444H11.8656C11.8613 11.4672 11.3672 12.384 10.4547 12.384C9.7368 12.384 9.36488 11.8975 9.31947 11.4975H8.57996ZM11.7726 8.99244C11.7726 9.74493 11.1683 10.2682 10.4925 10.2682C9.84275 10.2682 9.25569 9.85412 9.25569 8.97081C9.25569 8.08102 9.88492 7.66261 10.5185 7.66261C11.2029 7.66261 11.7726 8.09291 11.7726 8.99244Z" fill="white"/>
<path d="M4.11151 0.272217C4.25488 0.272217 4.39238 0.329171 4.49376 0.430549C4.59514 0.531927 4.65209 0.669426 4.65209 0.812797V1.35338H13.3014V0.812797C13.3014 0.669426 13.3583 0.531927 13.4597 0.430549C13.5611 0.329171 13.6986 0.272217 13.8419 0.272217C13.9853 0.272217 14.1228 0.329171 14.2242 0.430549C14.3256 0.531927 14.3825 0.669426 14.3825 0.812797V1.35338H15.4637C16.0372 1.35338 16.5872 1.58119 16.9927 1.9867C17.3982 2.39222 17.626 2.94221 17.626 3.5157V15.4084C17.626 15.9819 17.3982 16.5319 16.9927 16.9374C16.5872 17.343 16.0372 17.5708 15.4637 17.5708H2.48977C1.91629 17.5708 1.3663 17.343 0.960782 16.9374C0.555269 16.5319 0.327454 15.9819 0.327454 15.4084V3.5157C0.327454 2.94221 0.555269 2.39222 0.960782 1.9867C1.3663 1.58119 1.91629 1.35338 2.48977 1.35338H3.57093V0.812797C3.57093 0.669426 3.62789 0.531927 3.72926 0.430549C3.83064 0.329171 3.96814 0.272217 4.11151 0.272217V0.272217ZM1.40861 4.59685V15.4084C1.40861 15.6952 1.52252 15.9702 1.72528 16.1729C1.92803 16.3757 2.20303 16.4896 2.48977 16.4896H15.4637C15.7504 16.4896 16.0254 16.3757 16.2282 16.1729C16.4309 15.9702 16.5448 15.6952 16.5448 15.4084V4.59685H1.40861Z" fill="white"/>
</g>
<defs>
<clipPath id="clip0_0_1466">
<rect width="17.2986" height="17.2986" fill="white" transform="translate(0.327454 0.272217)"/>
</clipPath>
</defs>
</svg>
