<svg width="26" height="26" viewBox="0 0 26 26" fill="none" xmlns="http://www.w3.org/2000/svg">
<g clip-path="url(#clip0_0_1303)">
<path d="M23.1977 7.22266H2.80211C2.44201 7.22266 2.09665 7.36571 1.84202 7.62034C1.58739 7.87497 1.44434 8.22033 1.44434 8.58043V21.7538C1.44434 22.1139 1.58739 22.4592 1.84202 22.7139C2.09665 22.9685 2.44201 23.1115 2.80211 23.1115H23.1977C23.5578 23.1115 23.9031 22.9685 24.1578 22.7139C24.4124 22.4592 24.5554 22.1139 24.5554 21.7538V8.58043C24.5554 8.22033 24.4124 7.87497 24.1578 7.62034C23.9031 7.36571 23.5578 7.22266 23.1977 7.22266ZM23.111 21.6671H2.88878V8.6671H23.111V21.6671Z" fill="black"/>
<path d="M6.18229 14.0472C6.61082 14.0472 7.02972 13.9201 7.38603 13.6821C7.74233 13.444 8.02004 13.1056 8.18403 12.7097C8.34802 12.3138 8.39093 11.8781 8.30733 11.4578C8.22372 11.0375 8.01737 10.6515 7.71436 10.3485C7.41134 10.0455 7.02528 9.8391 6.60499 9.7555C6.1847 9.6719 5.74905 9.71481 5.35314 9.8788C4.95724 10.0428 4.61885 10.3205 4.38077 10.6768C4.1427 11.0331 4.01562 11.452 4.01562 11.8805C4.01562 12.4552 4.2439 13.0063 4.65023 13.4126C5.05656 13.8189 5.60766 14.0472 6.18229 14.0472ZM6.18229 10.725C6.41198 10.7192 6.63817 10.7821 6.83196 10.9055C7.02576 11.029 7.17835 11.2074 7.27026 11.4179C7.36217 11.6285 7.38921 11.8617 7.34794 12.0877C7.30667 12.3138 7.19896 12.5224 7.03856 12.6869C6.87816 12.8514 6.67236 12.9643 6.44746 13.0113C6.22255 13.0583 5.98874 13.0372 5.7759 12.9506C5.56306 12.8641 5.38086 12.716 5.25256 12.5254C5.12426 12.3348 5.0557 12.1103 5.05563 11.8805C5.05553 11.579 5.1733 11.2894 5.3838 11.0735C5.5943 10.8576 5.88085 10.7325 6.18229 10.725Z" fill="black"/>
<path d="M5.70539 20.222L10.0387 15.8886L12.3354 18.1853L10.2987 20.222H11.7432L17.1309 14.8342L21.6665 19.3336V17.8892L17.4776 13.722C17.3816 13.6267 17.2518 13.5732 17.1165 13.5732C16.9812 13.5732 16.8514 13.6267 16.7554 13.722L13.0287 17.4486L10.3782 14.8053C10.2821 14.71 10.1523 14.6566 10.0171 14.6566C9.88178 14.6566 9.75199 14.71 9.65595 14.8053L4.27539 20.222H5.70539Z" fill="black"/>
<path d="M21.7679 2.16656C21.7679 1.97501 21.6918 1.79131 21.5564 1.65587C21.4209 1.52043 21.2372 1.44434 21.0457 1.44434H5.15679C4.96525 1.44434 4.78155 1.52043 4.6461 1.65587C4.51066 1.79131 4.43457 1.97501 4.43457 2.16656V2.88878H21.7679V2.16656Z" fill="black"/>
<path d="M23.1978 5.05523C23.1978 4.86368 23.1217 4.67998 22.9863 4.54454C22.8508 4.4091 22.6671 4.33301 22.4756 4.33301H3.69781C3.50626 4.33301 3.32256 4.4091 3.18712 4.54454C3.05168 4.67998 2.97559 4.86368 2.97559 5.05523V5.77745H23.1978V5.05523Z" fill="black"/>
</g>
<defs>
<clipPath id="clip0_0_1303">
<rect width="26" height="26" fill="white"/>
</clipPath>
</defs>
</svg>
