<svg width="16" height="15" viewBox="0 0 16 15" fill="none" xmlns="http://www.w3.org/2000/svg">
<path d="M11.2387 12.835L10.8121 9.41899C10.7516 8.93514 10.5165 8.49005 10.1509 8.1674C9.78525 7.84476 9.31436 7.6668 8.82675 7.66699H7.35742C6.87003 7.66713 6.39947 7.84524 6.03414 8.16785C5.66881 8.49046 5.43385 8.93537 5.37341 9.41899L4.94608 12.835C4.92263 13.0227 4.93937 13.2132 4.9952 13.3939C5.05103 13.5746 5.14466 13.7414 5.26989 13.8831C5.39511 14.0248 5.54906 14.1383 5.7215 14.216C5.89395 14.2937 6.08095 14.3338 6.27008 14.3337H9.91541C10.1045 14.3337 10.2914 14.2935 10.4638 14.2158C10.6361 14.1381 10.79 14.0246 10.9152 13.8829C11.0403 13.7411 11.1339 13.5744 11.1897 13.3937C11.2455 13.2131 11.2622 13.0226 11.2387 12.835V12.835Z" stroke="white" stroke-linecap="round" stroke-linejoin="round"/>
<path d="M8.09277 5C9.19734 5 10.0928 4.10457 10.0928 3C10.0928 1.89543 9.19734 1 8.09277 1C6.9882 1 6.09277 1.89543 6.09277 3C6.09277 4.10457 6.9882 5 8.09277 5Z" stroke="white"/>
<path d="M2.7596 6.99967C3.49598 6.99967 4.09294 6.40272 4.09294 5.66634C4.09294 4.92996 3.49598 4.33301 2.7596 4.33301C2.02322 4.33301 1.42627 4.92996 1.42627 5.66634C1.42627 6.40272 2.02322 6.99967 2.7596 6.99967Z" stroke="white"/>
<path d="M13.4261 6.99967C14.1625 6.99967 14.7594 6.40272 14.7594 5.66634C14.7594 4.92996 14.1625 4.33301 13.4261 4.33301C12.6897 4.33301 12.0928 4.92996 12.0928 5.66634C12.0928 6.40272 12.6897 6.99967 13.4261 6.99967Z" stroke="white"/>
<path d="M2.7595 9H2.5555C2.23987 8.99996 1.93447 9.11189 1.69361 9.31588C1.45276 9.51986 1.29208 9.80267 1.24016 10.114L1.01816 11.4473C0.986305 11.6384 0.996445 11.834 1.04788 12.0208C1.09931 12.2075 1.1908 12.3807 1.31598 12.5285C1.44117 12.6763 1.59704 12.795 1.77276 12.8764C1.94848 12.9579 2.13983 13 2.3335 13H4.7595M13.4262 9H13.6302C13.9458 8.99996 14.2512 9.11189 14.492 9.31588C14.7329 9.51986 14.8936 9.80267 14.9455 10.114L15.1675 11.4473C15.1994 11.6384 15.1892 11.834 15.1378 12.0208C15.0864 12.2075 14.9949 12.3807 14.8697 12.5285C14.7445 12.6763 14.5886 12.795 14.4129 12.8764C14.2372 12.9579 14.0458 13 13.8522 13H11.4262" stroke="white" stroke-linecap="round" stroke-linejoin="round"/>
</svg>
