<svg width="212" height="21" viewBox="0 0 212 21" fill="none" xmlns="http://www.w3.org/2000/svg">
<path fill-rule="evenodd" clip-rule="evenodd" d="M164.962 0.0174828C137.552 0.271304 119.386 1.24993 83.0561 4.42995C79.861 4.70954 74.8655 5.14522 71.9551 5.39813C47.9797 7.4808 14.5179 12.6463 5.3111 15.6859C3.40173 16.3163 0 18.0667 0 18.4189C0 18.4772 0.158865 18.3858 0.783742 17.9682C3.66459 16.0427 11.394 14.3208 30.4271 11.3644C41.6699 9.61796 53.9555 8.04134 64.0751 7.04638C71.7997 6.28684 108.454 3.33123 109.687 3.36858C109.94 3.37618 108.542 3.52807 106.581 3.70606C85.5106 5.61846 78.3362 6.39378 65.6281 8.13216C55.7816 9.47902 50.0053 10.4667 35.2445 13.3279C29.6912 14.4042 29.8515 14.3643 29.7634 14.6968C29.5402 15.539 30.2515 15.5578 34.8126 14.8297C65.7444 9.89255 84.2044 8.09719 113.138 7.212C120.923 6.97384 147.891 6.75577 147.419 6.93479C147.149 7.03707 139.038 7.66379 125.447 8.63242C95.0385 10.7998 75.5816 13.374 54.1604 18.0639C48.2208 19.3642 47.155 19.7734 47.6734 20.5542C48.2208 21.3786 51.6065 21.1441 68.1589 19.1347C92.9487 16.1251 102.154 15.3191 121.996 14.4204C126.608 14.2115 134.531 13.9981 134.305 14.0889C134.241 14.1142 129.246 14.6745 123.204 15.3339C108.085 16.9838 98.384 18.1934 98.0452 18.4708C97.5228 18.8985 97.6735 19.5154 98.3454 19.6995C99.1646 19.9241 101.481 19.8012 106.811 19.2504C118.371 18.0559 129.923 17.4012 147.005 16.9722C149.561 16.9079 152.538 16.8069 153.62 16.7477C156.136 16.6098 160.124 16.6102 161.971 16.7484C162.762 16.8076 163.745 16.8806 164.157 16.9107C165.716 17.0245 160.308 16.2912 158.002 16.0761C152.223 15.5371 144.689 15.4165 135.755 15.7198C133.705 15.7894 132.011 15.8287 131.989 15.8074C131.943 15.7624 134.02 15.5528 144.083 14.5869C151.798 13.8462 151.991 13.8135 152.285 13.2018C152.472 12.8137 152.285 12.352 151.848 12.1185C151.516 11.9418 140.249 11.9976 134.132 12.2061C119.467 12.7062 111.696 13.1325 101.922 13.9731C92.0322 14.8237 85.4624 15.5839 69.0307 17.7792C59.0269 19.1157 53.7595 19.7587 51.9963 19.8587L50.9035 19.9206L52.2264 19.5827C56.3072 18.5405 69.9101 15.998 77.6494 14.8309C93.726 12.4066 104.713 11.2942 129.358 9.5956C150.067 8.16836 154.308 7.74064 154.628 7.0474C154.973 6.30046 154.357 5.85673 152.653 5.62357C150.329 5.30562 121.639 5.38678 111.47 5.74004C101.499 6.08649 89.6578 6.75725 83.4012 7.33005C82.7369 7.39089 82.0121 7.43414 81.7907 7.4262C80.1627 7.36785 102.564 5.2223 115.381 4.20905C129.422 3.0991 140.531 2.45841 155.931 1.87029C165.889 1.49012 191.308 1.64916 201.601 2.15623C211.136 2.62596 211.478 2.63232 211.767 2.34717C212.068 2.04976 212.077 1.82919 211.797 1.55324C211.441 1.20202 209.435 1.01597 204.879 0.911537C203.203 0.873055 199.501 0.717421 196.654 0.565537C193.807 0.413766 190.287 0.238159 188.832 0.175271C186.086 0.0566474 171.29 -0.0410912 164.962 0.0174828ZM114.262 3.0882C114.184 3.1193 114.029 3.12123 113.917 3.0924C113.805 3.06356 113.869 3.03814 114.058 3.03587C114.248 3.0336 114.34 3.0571 114.262 3.0882ZM112.766 3.20716C112.624 3.23406 112.365 3.23475 112.191 3.20875C112.016 3.18264 112.131 3.16062 112.448 3.15971C112.764 3.15892 112.907 3.18026 112.766 3.20716ZM111.211 3.32204C111.037 3.34804 110.753 3.34804 110.578 3.32204C110.404 3.29605 110.547 3.27482 110.895 3.27482C111.243 3.27482 111.385 3.29605 111.211 3.32204ZM81.1292 7.52098C80.9869 7.548 80.7539 7.548 80.6116 7.52098C80.4693 7.49385 80.5857 7.47172 80.8704 7.47172C81.1551 7.47172 81.2715 7.49385 81.1292 7.52098ZM79.8638 7.6295C79.7848 7.66106 79.6554 7.66106 79.5763 7.6295C79.4972 7.59806 79.5619 7.5723 79.72 7.5723C79.8782 7.5723 79.943 7.59806 79.8638 7.6295ZM165.163 17.0513C165.242 17.0829 165.372 17.0829 165.451 17.0513C165.53 17.0199 165.465 16.9941 165.307 16.9941C165.149 16.9941 165.084 17.0199 165.163 17.0513Z" fill="white"/>
</svg>
