<svg width="187" height="19" viewBox="0 0 187 19" fill="none" xmlns="http://www.w3.org/2000/svg">
<path fill-rule="evenodd" clip-rule="evenodd" d="M148.379 0.0297457C128.028 0.327805 113.609 1.03882 93.5511 2.73312C77.0529 4.12678 66.1188 5.25917 47.4497 7.50768C36.4718 8.82981 32.1721 9.44122 23.4396 10.9216C16.562 12.0876 12.264 12.7705 8.1935 13.3441C2.13539 14.1978 0 14.5939 0 14.8638C0 14.9827 0.20183 15.0116 0.375345 14.9176C0.525836 14.8361 1.34985 14.713 6.41074 14.0162C10.6475 13.4327 13.7756 12.9636 20.0689 11.9676C34.1875 9.73315 35.495 9.56375 57.3894 7.13332C88.4325 3.68724 113.642 1.85782 137.838 1.29536C160.814 0.761212 179.733 0.979656 184.587 1.83501C185.389 1.97631 185.393 1.96418 184.479 2.19274C182.354 2.72475 177.589 3.33862 168.174 4.29348C157.422 5.38391 151.589 5.89002 134.104 7.24962C120.79 8.28494 120.469 8.31314 102.885 10.0028C84.4667 11.7728 76.3557 12.6225 65.3406 13.9364C61.4507 14.4003 61.1233 14.4352 56.3357 14.8937C46.8093 15.8061 38.6285 16.7987 30.596 18.0168C27.9808 18.4133 27.5091 18.592 28.1928 18.9272C28.7432 19.197 33.3115 18.7335 44.6494 17.2575C58.6424 15.4358 60.6126 15.2142 68.6595 14.5572C80.1958 13.6153 89.8122 13.0046 97.8553 12.7032C105.914 12.4012 119.39 12.0167 126.688 11.8804C130.764 11.8043 146.551 11.7444 147.338 11.8021L147.95 11.847L147.379 11.9216C146.386 12.0518 128.778 13.9022 121.036 14.6901C118.611 14.9368 115.111 15.2804 113.257 15.4536C107.213 16.0181 94.2473 17.3407 91.961 17.6258C90.5329 17.804 90.0323 18.1662 90.7081 18.5323C91.1685 18.7816 94.2577 18.8032 100.967 18.604C102.564 18.5565 105.504 18.4784 107.501 18.4303C109.497 18.3823 112.481 18.2805 114.132 18.2041C115.783 18.1277 118.256 18.038 119.629 18.0049C121.002 17.9717 122.731 17.9248 123.473 17.9006L124.821 17.8567L123.629 17.8479C122.067 17.8364 118.393 17.7461 115.279 17.6426C111.628 17.5213 103.63 17.5487 99.93 17.6952C99.5118 17.7117 99.3648 17.7026 99.481 17.6674C99.7078 17.5986 109.132 16.6434 113.568 16.2397C126.973 15.0194 149.89 12.5928 151.038 12.2722C152.057 11.9877 151.98 11.49 150.879 11.2407C148.906 10.7941 130.704 10.8772 114.398 11.4073C113 11.4527 109.733 11.554 107.138 11.6324C97.3769 11.9272 87.7842 12.352 84.1649 12.65C83.9367 12.6688 83.7768 12.6688 83.8096 12.6502C83.9414 12.5749 109.199 10.149 118.996 9.27064C121.212 9.07197 127.629 8.55417 133.257 8.11987C152.818 6.61047 157.335 6.22094 169.16 5.02331C183.761 3.54448 187.728 2.8047 186.895 1.71584C186.202 0.809247 182.23 0.396236 171.182 0.0820518C168.539 0.00687686 152.458 -0.0300346 148.379 0.0297457Z" fill="white"/>
</svg>
