<svg width="26" height="26" viewBox="0 0 26 26" fill="none" xmlns="http://www.w3.org/2000/svg">
<path d="M20.5837 4.33366H18.417V3.25033C18.417 2.96301 18.3029 2.68746 18.0997 2.48429C17.8965 2.28113 17.621 2.16699 17.3337 2.16699C17.0463 2.16699 16.7708 2.28113 16.5676 2.48429C16.3645 2.68746 16.2503 2.96301 16.2503 3.25033V4.33366H9.75033V3.25033C9.75033 2.96301 9.63619 2.68746 9.43302 2.48429C9.22986 2.28113 8.95431 2.16699 8.66699 2.16699C8.37967 2.16699 8.10412 2.28113 7.90096 2.48429C7.6978 2.68746 7.58366 2.96301 7.58366 3.25033V4.33366H5.41699C4.55504 4.33366 3.72839 4.67607 3.1189 5.28556C2.5094 5.89505 2.16699 6.7217 2.16699 7.58366V20.5837C2.16699 21.4456 2.5094 22.2723 3.1189 22.8818C3.72839 23.4912 4.55504 23.8337 5.41699 23.8337H20.5837C21.4456 23.8337 22.2723 23.4912 22.8818 22.8818C23.4912 22.2723 23.8337 21.4456 23.8337 20.5837V7.58366C23.8337 6.7217 23.4912 5.89505 22.8818 5.28556C22.2723 4.67607 21.4456 4.33366 20.5837 4.33366ZM21.667 20.5837C21.667 20.871 21.5529 21.1465 21.3497 21.3497C21.1465 21.5529 20.871 21.667 20.5837 21.667H5.41699C5.12967 21.667 4.85412 21.5529 4.65096 21.3497C4.4478 21.1465 4.33366 20.871 4.33366 20.5837V13.0003H21.667V20.5837ZM21.667 10.8337H4.33366V7.58366C4.33366 7.29634 4.4478 7.02079 4.65096 6.81763C4.85412 6.61446 5.12967 6.50033 5.41699 6.50033H7.58366V7.58366C7.58366 7.87098 7.6978 8.14653 7.90096 8.34969C8.10412 8.55286 8.37967 8.66699 8.66699 8.66699C8.95431 8.66699 9.22986 8.55286 9.43302 8.34969C9.63619 8.14653 9.75033 7.87098 9.75033 7.58366V6.50033H16.2503V7.58366C16.2503 7.87098 16.3645 8.14653 16.5676 8.34969C16.7708 8.55286 17.0463 8.66699 17.3337 8.66699C17.621 8.66699 17.8965 8.55286 18.0997 8.34969C18.3029 8.14653 18.417 7.87098 18.417 7.58366V6.50033H20.5837C20.871 6.50033 21.1465 6.61446 21.3497 6.81763C21.5529 7.02079 21.667 7.29634 21.667 7.58366V10.8337Z" fill="black"/>
</svg>
