<svg width="26" height="26" viewBox="0 0 26 26" fill="none" xmlns="http://www.w3.org/2000/svg">
<path d="M20.5832 4.33366H18.4165V3.25033C18.4165 2.96301 18.3024 2.68746 18.0992 2.48429C17.896 2.28113 17.6205 2.16699 17.3332 2.16699C17.0459 2.16699 16.7703 2.28113 16.5671 2.48429C16.364 2.68746 16.2498 2.96301 16.2498 3.25033V4.33366H9.74984V3.25033C9.74984 2.96301 9.6357 2.68746 9.43254 2.48429C9.22937 2.28113 8.95382 2.16699 8.6665 2.16699C8.37919 2.16699 8.10364 2.28113 7.90047 2.48429C7.69731 2.68746 7.58317 2.96301 7.58317 3.25033V4.33366H5.4165C4.55455 4.33366 3.7279 4.67607 3.11841 5.28556C2.50891 5.89505 2.1665 6.7217 2.1665 7.58366V20.5837C2.1665 21.4456 2.50891 22.2723 3.11841 22.8818C3.7279 23.4912 4.55455 23.8337 5.4165 23.8337H20.5832C21.4451 23.8337 22.2718 23.4912 22.8813 22.8818C23.4908 22.2723 23.8332 21.4456 23.8332 20.5837V7.58366C23.8332 6.7217 23.4908 5.89505 22.8813 5.28556C22.2718 4.67607 21.4451 4.33366 20.5832 4.33366ZM21.6665 20.5837C21.6665 20.871 21.5524 21.1465 21.3492 21.3497C21.146 21.5529 20.8705 21.667 20.5832 21.667H5.4165C5.12919 21.667 4.85364 21.5529 4.65047 21.3497C4.44731 21.1465 4.33317 20.871 4.33317 20.5837V13.0003H21.6665V20.5837ZM21.6665 10.8337H4.33317V7.58366C4.33317 7.29634 4.44731 7.02079 4.65047 6.81763C4.85364 6.61446 5.12919 6.50033 5.4165 6.50033H7.58317V7.58366C7.58317 7.87098 7.69731 8.14653 7.90047 8.34969C8.10364 8.55286 8.37919 8.66699 8.6665 8.66699C8.95382 8.66699 9.22937 8.55286 9.43254 8.34969C9.6357 8.14653 9.74984 7.87098 9.74984 7.58366V6.50033H16.2498V7.58366C16.2498 7.87098 16.364 8.14653 16.5671 8.34969C16.7703 8.55286 17.0459 8.66699 17.3332 8.66699C17.6205 8.66699 17.896 8.55286 18.0992 8.34969C18.3024 8.14653 18.4165 7.87098 18.4165 7.58366V6.50033H20.5832C20.8705 6.50033 21.146 6.61446 21.3492 6.81763C21.5524 7.02079 21.6665 7.29634 21.6665 7.58366V10.8337Z" fill="black"/>
</svg>
