<svg width="94" height="94" viewBox="0 0 94 94" fill="none" xmlns="http://www.w3.org/2000/svg">
<path d="M47 0.625C21.3902 0.625 0.625 21.3902 0.625 47C0.625 72.6098 21.3902 93.375 47 93.375C72.6098 93.375 93.375 72.6098 93.375 47C93.375 21.3902 72.6098 0.625 47 0.625ZM61.9166 47.7143L39.3088 64.1629C39.1848 64.252 39.0387 64.3051 38.8866 64.3166C38.7344 64.328 38.582 64.2973 38.4461 64.2277C38.3102 64.1582 38.1962 64.0526 38.1164 63.9224C38.0367 63.7923 37.9944 63.6427 37.9941 63.49V30.6135C37.9936 30.4605 38.0355 30.3105 38.1151 30.1799C38.1946 30.0493 38.3088 29.9433 38.445 29.8736C38.5811 29.8039 38.7339 29.7733 38.8863 29.7851C39.0388 29.797 39.185 29.8508 39.3088 29.9406L61.9166 46.3789C62.0234 46.4544 62.1105 46.5545 62.1707 46.6707C62.2308 46.7869 62.2622 46.9158 62.2622 47.0466C62.2622 47.1774 62.2308 47.3063 62.1707 47.4225C62.1105 47.5387 62.0234 47.6387 61.9166 47.7143Z" fill="#DF6951"/>
</svg>
